<svg width="296" height="95" viewBox="0 0 296 95" fill="none" xmlns="http://www.w3.org/2000/svg">
<g clip-path="url(#clip0_96_4)" filter="url(#filter0_d_96_4)">
<rect width="288" height="87" transform="translate(4)" fill="white"/>
<ellipse cx="23.8973" cy="74.8494" rx="71.3462" ry="61.5375" transform="rotate(-109.59 23.8973 74.8494)" fill="url(#paint0_radial_96_4)"/>
<ellipse cx="97.4404" cy="47.7867" rx="209.718" ry="90.5757" transform="rotate(23.5361 97.4404 47.7867)" fill="url(#paint1_radial_96_4)"/>
<path d="M123.008 29.4H123.592V35H123.008V29.4ZM119.504 35H118.912V29.4H119.504V35ZM123.064 32.416H119.44V31.896H123.064V32.416ZM124.9 35V30.8H125.468V35H124.9ZM125.188 29.872C125.07 29.872 124.972 29.832 124.892 29.752C124.812 29.672 124.772 29.576 124.772 29.464C124.772 29.352 124.812 29.2587 124.892 29.184C124.972 29.104 125.07 29.064 125.188 29.064C125.305 29.064 125.404 29.1013 125.484 29.176C125.564 29.2507 125.604 29.344 125.604 29.456C125.604 29.5733 125.564 29.672 125.484 29.752C125.409 29.832 125.31 29.872 125.188 29.872ZM126.304 36.168L126.656 34.688L126.72 35.032C126.598 35.032 126.494 34.992 126.408 34.912C126.328 34.832 126.288 34.728 126.288 34.6C126.288 34.472 126.328 34.368 126.408 34.288C126.494 34.208 126.595 34.168 126.712 34.168C126.835 34.168 126.934 34.2107 127.008 34.296C127.088 34.3813 127.128 34.4827 127.128 34.6C127.128 34.6427 127.126 34.6853 127.12 34.728C127.115 34.7707 127.104 34.8187 127.088 34.872C127.072 34.9253 127.051 34.9893 127.024 35.064L126.688 36.168H126.304ZM129.757 35V29.4H130.349V35H129.757ZM133.219 30.144L131.923 29.152H132.683L133.779 30.144H133.219ZM141.296 30.76C141.638 30.76 141.934 30.8267 142.184 30.96C142.44 31.088 142.638 31.2853 142.776 31.552C142.92 31.8187 142.992 32.1547 142.992 32.56V35H142.424V32.616C142.424 32.1733 142.318 31.84 142.104 31.616C141.896 31.3867 141.6 31.272 141.216 31.272C140.928 31.272 140.678 31.3333 140.464 31.456C140.256 31.5733 140.094 31.7467 139.976 31.976C139.864 32.2 139.808 32.472 139.808 32.792V35H139.24V32.616C139.24 32.1733 139.134 31.84 138.92 31.616C138.707 31.3867 138.408 31.272 138.024 31.272C137.742 31.272 137.494 31.3333 137.28 31.456C137.067 31.5733 136.902 31.7467 136.784 31.976C136.672 32.2 136.616 32.472 136.616 32.792V35H136.048V30.8H136.592V31.936L136.504 31.736C136.632 31.432 136.838 31.1947 137.12 31.024C137.408 30.848 137.747 30.76 138.136 30.76C138.547 30.76 138.896 30.864 139.184 31.072C139.472 31.2747 139.659 31.5813 139.744 31.992L139.52 31.904C139.643 31.5627 139.859 31.288 140.168 31.08C140.483 30.8667 140.859 30.76 141.296 30.76ZM121.588 39.908V45.692H123.136V47H118.492V45.692H120.04V39.908H118.492V38.6H123.136V39.908H121.588ZM126.721 47.084C126.057 47.084 125.537 46.904 125.161 46.544C124.793 46.176 124.609 45.66 124.609 44.996V38.096H126.109V44.888C126.109 45.528 126.409 45.848 127.009 45.848C127.209 45.848 127.389 45.808 127.549 45.728L127.621 46.928C127.341 47.032 127.041 47.084 126.721 47.084ZM134.844 40.592V46.028C134.844 48.284 133.736 49.412 131.52 49.412C130.936 49.412 130.376 49.332 129.84 49.172C129.312 49.02 128.876 48.796 128.532 48.5L129.204 47.372C129.476 47.604 129.808 47.788 130.2 47.924C130.592 48.06 131.004 48.128 131.436 48.128C132.092 48.128 132.572 47.968 132.876 47.648C133.188 47.336 133.344 46.852 133.344 46.196V45.896C133.104 46.16 132.812 46.364 132.468 46.508C132.124 46.644 131.752 46.712 131.352 46.712C130.496 46.712 129.82 46.476 129.324 46.004C128.836 45.532 128.592 44.824 128.592 43.88V40.592H130.092V43.688C130.092 44.256 130.22 44.684 130.476 44.972C130.74 45.252 131.112 45.392 131.592 45.392C132.128 45.392 132.552 45.228 132.864 44.9C133.184 44.572 133.344 44.096 133.344 43.472V40.592H134.844ZM143.072 40.592V47H141.644V46.172C141.396 46.476 141.088 46.704 140.72 46.856C140.36 47.008 139.96 47.084 139.52 47.084C138.896 47.084 138.336 46.948 137.84 46.676C137.352 46.404 136.968 46.02 136.688 45.524C136.416 45.028 136.28 44.452 136.28 43.796C136.28 43.14 136.416 42.568 136.688 42.08C136.968 41.584 137.352 41.2 137.84 40.928C138.336 40.656 138.896 40.52 139.52 40.52C139.936 40.52 140.316 40.592 140.66 40.736C141.012 40.88 141.316 41.092 141.572 41.372V40.592H143.072ZM139.688 45.8C140.24 45.8 140.696 45.616 141.056 45.248C141.416 44.88 141.596 44.396 141.596 43.796C141.596 43.196 141.416 42.712 141.056 42.344C140.696 41.976 140.24 41.792 139.688 41.792C139.136 41.792 138.68 41.976 138.32 42.344C137.968 42.712 137.792 43.196 137.792 43.796C137.792 44.396 137.968 44.88 138.32 45.248C138.68 45.616 139.136 45.8 139.688 45.8ZM119.128 50.6H122.8C123.696 50.6 124.492 50.776 125.188 51.128C125.884 51.472 126.424 51.964 126.808 52.604C127.192 53.236 127.384 53.968 127.384 54.8C127.384 55.632 127.192 56.368 126.808 57.008C126.424 57.64 125.884 58.132 125.188 58.484C124.492 58.828 123.696 59 122.8 59H119.128V50.6ZM122.728 57.68C123.344 57.68 123.884 57.564 124.348 57.332C124.82 57.092 125.18 56.756 125.428 56.324C125.684 55.884 125.812 55.376 125.812 54.8C125.812 54.224 125.684 53.72 125.428 53.288C125.18 52.848 124.82 52.512 124.348 52.28C123.884 52.04 123.344 51.92 122.728 51.92H120.688V57.68H122.728ZM131.778 59.084C131.13 59.084 130.546 58.944 130.026 58.664C129.506 58.384 129.098 57.996 128.802 57.5C128.514 56.996 128.37 56.428 128.37 55.796C128.37 55.164 128.514 54.6 128.802 54.104C129.098 53.608 129.506 53.22 130.026 52.94C130.546 52.66 131.13 52.52 131.778 52.52C132.434 52.52 133.022 52.66 133.542 52.94C134.062 53.22 134.466 53.608 134.754 54.104C135.05 54.6 135.198 55.164 135.198 55.796C135.198 56.428 135.05 56.996 134.754 57.5C134.466 57.996 134.062 58.384 133.542 58.664C133.022 58.944 132.434 59.084 131.778 59.084ZM131.778 57.8C132.33 57.8 132.786 57.616 133.146 57.248C133.506 56.88 133.686 56.396 133.686 55.796C133.686 55.196 133.506 54.712 133.146 54.344C132.786 53.976 132.33 53.792 131.778 53.792C131.226 53.792 130.77 53.976 130.41 54.344C130.058 54.712 129.882 55.196 129.882 55.796C129.882 56.396 130.058 56.88 130.41 57.248C130.77 57.616 131.226 57.8 131.778 57.8ZM138.744 59.084C138.08 59.084 137.56 58.904 137.184 58.544C136.816 58.176 136.632 57.66 136.632 56.996V50.096H138.132V56.888C138.132 57.528 138.432 57.848 139.032 57.848C139.232 57.848 139.412 57.808 139.572 57.728L139.644 58.928C139.364 59.032 139.064 59.084 138.744 59.084ZM146.907 52.592V58.028C146.907 60.284 145.755 61.412 143.451 61.412C142.835 61.412 142.251 61.332 141.699 61.172C141.147 61.02 140.691 60.796 140.331 60.5L141.003 59.372C141.283 59.604 141.635 59.788 142.059 59.924C142.491 60.068 142.927 60.14 143.367 60.14C144.071 60.14 144.587 59.98 144.915 59.66C145.243 59.34 145.407 58.852 145.407 58.196V57.86C145.151 58.14 144.839 58.352 144.471 58.496C144.103 58.64 143.699 58.712 143.259 58.712C142.651 58.712 142.099 58.584 141.603 58.328C141.115 58.064 140.727 57.696 140.439 57.224C140.159 56.752 140.019 56.212 140.019 55.604C140.019 54.996 140.159 54.46 140.439 53.996C140.727 53.524 141.115 53.16 141.603 52.904C142.099 52.648 142.651 52.52 143.259 52.52C143.723 52.52 144.143 52.596 144.519 52.748C144.903 52.9 145.223 53.132 145.479 53.444V52.592H146.907ZM143.487 57.44C144.055 57.44 144.519 57.272 144.879 56.936C145.247 56.592 145.431 56.148 145.431 55.604C145.431 55.068 145.247 54.632 144.879 54.296C144.519 53.96 144.055 53.792 143.487 53.792C142.911 53.792 142.439 53.96 142.071 54.296C141.711 54.632 141.531 55.068 141.531 55.604C141.531 56.148 141.711 56.592 142.071 56.936C142.439 57.272 142.911 57.44 143.487 57.44ZM151.759 59.084C151.111 59.084 150.527 58.944 150.007 58.664C149.487 58.384 149.079 57.996 148.783 57.5C148.495 56.996 148.351 56.428 148.351 55.796C148.351 55.164 148.495 54.6 148.783 54.104C149.079 53.608 149.487 53.22 150.007 52.94C150.527 52.66 151.111 52.52 151.759 52.52C152.415 52.52 153.003 52.66 153.523 52.94C154.043 53.22 154.447 53.608 154.735 54.104C155.031 54.6 155.179 55.164 155.179 55.796C155.179 56.428 155.031 56.996 154.735 57.5C154.447 57.996 154.043 58.384 153.523 58.664C153.003 58.944 152.415 59.084 151.759 59.084ZM151.759 57.8C152.311 57.8 152.767 57.616 153.127 57.248C153.487 56.88 153.667 56.396 153.667 55.796C153.667 55.196 153.487 54.712 153.127 54.344C152.767 53.976 152.311 53.792 151.759 53.792C151.207 53.792 150.751 53.976 150.391 54.344C150.039 54.712 149.863 55.196 149.863 55.796C149.863 56.396 150.039 56.88 150.391 57.248C150.751 57.616 151.207 57.8 151.759 57.8ZM162.437 52.592L159.689 59H158.141L155.393 52.592H156.953L158.945 57.344L160.997 52.592H162.437Z" fill="black"/>
<ellipse cx="244.495" cy="41.1266" rx="71.3462" ry="61.5375" transform="rotate(-51.7542 244.495 41.1266)" fill="url(#paint2_radial_96_4)"/>
</g>
<defs>
<filter id="filter0_d_96_4" x="0" y="0" width="296" height="95" filterUnits="userSpaceOnUse" color-interpolation-filters="sRGB">
<feFlood flood-opacity="0" result="BackgroundImageFix"/>
<feColorMatrix in="SourceAlpha" type="matrix" values="0 0 0 0 0 0 0 0 0 0 0 0 0 0 0 0 0 0 127 0" result="hardAlpha"/>
<feOffset dy="4"/>
<feGaussianBlur stdDeviation="2"/>
<feComposite in2="hardAlpha" operator="out"/>
<feColorMatrix type="matrix" values="0 0 0 0 0 0 0 0 0 0 0 0 0 0 0 0 0 0 0.1 0"/>
<feBlend mode="normal" in2="BackgroundImageFix" result="effect1_dropShadow_96_4"/>
<feBlend mode="normal" in="SourceGraphic" in2="effect1_dropShadow_96_4" result="shape"/>
</filter>
<radialGradient id="paint0_radial_96_4" cx="0" cy="0" r="1" gradientUnits="userSpaceOnUse" gradientTransform="translate(23.8973 74.8494) rotate(90) scale(61.5375 71.3462)">
<stop stop-color="#F6C6FF"/>
<stop offset="1" stop-color="white" stop-opacity="0"/>
</radialGradient>
<radialGradient id="paint1_radial_96_4" cx="0" cy="0" r="1" gradientUnits="userSpaceOnUse" gradientTransform="translate(97.4404 47.7867) rotate(90) scale(90.5757 209.718)">
<stop stop-color="#609FFF" stop-opacity="0.8"/>
<stop offset="1" stop-color="white" stop-opacity="0"/>
</radialGradient>
<radialGradient id="paint2_radial_96_4" cx="0" cy="0" r="1" gradientUnits="userSpaceOnUse" gradientTransform="translate(244.495 41.1266) rotate(90) scale(61.5375 71.3462)">
<stop stop-color="#D5E473"/>
<stop offset="1" stop-color="white" stop-opacity="0"/>
</radialGradient>
<clipPath id="clip0_96_4">
<rect width="288" height="87" fill="white" transform="translate(4)"/>
</clipPath>
</defs>
</svg>
